HIERARCHY
ROOT Beta:Hips
{
	OFFSET 0.00 0.00 0.00
	CHANNELS 6 Xposition Yposition Zposition Yrotation Xrotation Zrotation
	JOINT Beta:Spine
	{
		OFFSET	0.0000	9.2263	1.5771
		CHANNELS 3 Xrotation Yrotation Zrotation
		JOINT Beta:Spine1
		{
			OFFSET	0.0000	16.2540	-0.1656
			CHANNELS 3 Xrotation Yrotation Zrotation
			JOINT Beta:Spine2
			{
				OFFSET	0.0000	13.6396	-1.2923
				CHANNELS 3 Xrotation Yrotation Zrotation
				JOINT Beta:Neck
				{
					OFFSET	0.0000	13.8774	-4.3542
					CHANNELS 3 Xrotation Yrotation Zrotation
					JOINT Beta:Neck1
					{
						OFFSET	0.0000	4.3400	0.9269
						CHANNELS 3 Xrotation Yrotation Zrotation
						JOINT Beta:Head
						{
							OFFSET	0.0000	4.0266	0.8585
							CHANNELS 3 Xrotation Yrotation Zrotation
							End Site
							{
								OFFSET 0.0000 23.0297 0.1231
							}
						}
					}
				}
				JOINT Beta:LeftShoulder
				{
					OFFSET	6.1442	10.1870	-3.7932
					CHANNELS 3 Zrotation Xrotation Yrotation
					JOINT Beta:LeftArm
					{
						OFFSET	12.3191	-1.1130	-1.7935
						CHANNELS 3 Zrotation Xrotation Yrotation
						JOINT Beta:LeftForeArm
						{
							OFFSET	27.6870	0.0000	0.0000
							CHANNELS 3 Xrotation Zrotation Yrotation
							JOINT Beta:LeftHand
							{
								OFFSET	27.8738	0.0000	0.0000
								CHANNELS 3 Zrotation Yrotation Xrotation
								JOINT Beta:LeftHandThumb1
								{
									OFFSET	2.3785	-1.0029	2.6209
									CHANNELS 3 Zrotation Xrotation Yrotation
									JOINT Beta:LeftHandThumb2
									{
										OFFSET	3.3624	-1.0029	2.8398
										CHANNELS 3 Zrotation Xrotation Yrotation
										JOINT Beta:LeftHandThumb3
										{
											OFFSET	4.5018	-1.3445	2.1783
											CHANNELS 3 Zrotation Xrotation Yrotation
											End Site
											{
												OFFSET 2.6000 -1.0000 1.0000
											}
										}
									}
								}
								JOINT Beta:LeftHandMiddle1
								{
									OFFSET	10.4639	0.6148	0.4298
									CHANNELS 3 Zrotation Xrotation Yrotation
									JOINT Beta:LeftHandMiddle2
									{
										OFFSET	5.7921	0.0000	0.0000
										CHANNELS 3 Zrotation Xrotation Yrotation
										JOINT Beta:LeftHandMiddle3
										{
											OFFSET	3.7132	0.0000	0.0000
											CHANNELS 3 Zrotation Xrotation Yrotation
											End Site
											{
												OFFSET 2.3000 0.0000 0.0000
											}
										}
									}
								}
								JOINT Beta:LeftHandIndex1
								{
									OFFSET	10.3945	0.6148	2.7055
									CHANNELS 3 Zrotation Xrotation Yrotation
									JOINT Beta:LeftHandIndex2
									{
										OFFSET	5.5493	0.0000	0.0000
										CHANNELS 3 Zrotation Xrotation Yrotation
										JOINT Beta:LeftHandIndex3
										{
											OFFSET	3.3911	0.0000	0.0000
											CHANNELS 3 Zrotation Xrotation Yrotation
											End Site
											{
												OFFSET 2.5000 0.0000 0.0000
											}
										}
									}
								}
								JOINT Beta:LeftHandRing1
								{
									OFFSET	10.3252	0.3211	-1.8755
									CHANNELS 3 Zrotation Xrotation Yrotation
									JOINT Beta:LeftHandRing2
									{
										OFFSET	5.4452	0.0000	0.0000
										CHANNELS 3 Zrotation Xrotation Yrotation
										JOINT Beta:LeftHandRing3
										{
											OFFSET	3.7132	0.0000	0.0000
											CHANNELS 3 Zrotation Xrotation Yrotation
											End Site
											{
												OFFSET 2.0000 0.0000 0.0000
											}
										}
									}
								}
								JOINT Beta:LeftHandPinky1
								{
									OFFSET	10.0130	-0.0783	-3.9671
									CHANNELS 3 Zrotation Xrotation Yrotation
									JOINT Beta:LeftHandPinky2
									{
										OFFSET	3.6763	0.0000	0.0000
										CHANNELS 3 Zrotation Xrotation Yrotation
										JOINT Beta:LeftHandPinky3
										{
											OFFSET	2.8113	0.0000	0.0000
											CHANNELS 3 Zrotation Xrotation Yrotation
											End Site
											{
												OFFSET 2.9000 0.0000 0.0000
											}
										}
									}
								}
							}
						}
					}
				}
				JOINT Beta:RightShoulder
				{
					OFFSET	-6.1402	10.1870	-3.7932
					CHANNELS 3 Zrotation Xrotation Yrotation
					JOINT Beta:RightArm
					{
						OFFSET	-12.3231	-1.1130	-1.7935
						CHANNELS 3 Zrotation Xrotation Yrotation
						JOINT Beta:RightForeArm
						{
							OFFSET	-27.6870	0.0000	0.0000
							CHANNELS 3 Xrotation Zrotation Yrotation
							JOINT Beta:RightHand
							{
								OFFSET	-27.8738	0.0000	0.0000
								CHANNELS 3 Zrotation Yrotation Xrotation
								JOINT Beta:RightHandThumb1
								{
									OFFSET	-2.5178	-0.9367	2.5137
									CHANNELS 3 Zrotation Xrotation Yrotation
									JOINT Beta:RightHandThumb2
									{
										OFFSET	-3.2638	-1.0870	2.9669
										CHANNELS 3 Zrotation Xrotation Yrotation
										JOINT Beta:RightHandThumb3
										{
											OFFSET	-4.4165	-1.3703	2.1350
											CHANNELS 3 Zrotation Xrotation Yrotation
											End Site
											{
												OFFSET -2.6000 -1.0000 1.0000
											}
										}
									}
								}
								JOINT Beta:RightHandIndex1
								{
									OFFSET	-10.4665	0.4896	2.7120
									CHANNELS 3 Zrotation Xrotation Yrotation
									JOINT Beta:RightHandIndex2
									{
										OFFSET	-5.3768	0.0000	0.0000
										CHANNELS 3 Zrotation Xrotation Yrotation
										JOINT Beta:RightHandIndex3
										{
											OFFSET	-3.3855	0.0000	0.0000
											CHANNELS 3 Zrotation Xrotation Yrotation
											End Site
											{
												OFFSET -2.6000 0.0000 0.0000
											}
										}
									}
								}
								JOINT Beta:RightHandMiddle1
								{
									OFFSET	-10.7596	0.4896	0.4278
									CHANNELS 3 Zrotation Xrotation Yrotation
									JOINT Beta:RightHandMiddle2
									{
										OFFSET	-5.6168	0.0000	0.0000
										CHANNELS 3 Zrotation Xrotation Yrotation
										JOINT Beta:RightHandMiddle3
										{
											OFFSET	-3.7364	0.0000	0.0000
											CHANNELS 3 Zrotation Xrotation Yrotation
											End Site
											{
												OFFSET -2.3000 0.0000 0.0000
											}
										}
									}
								}
								JOINT Beta:RightHandRing1
								{
									OFFSET	-10.4702	0.3879	-1.9363
									CHANNELS 3 Zrotation Xrotation Yrotation
									JOINT Beta:RightHandRing2
									{
										OFFSET	-5.4013	0.0000	0.0000
										CHANNELS 3 Zrotation Xrotation Yrotation
										JOINT Beta:RightHandRing3
										{
											OFFSET	-3.3916	0.0000	0.0000
											CHANNELS 3 Zrotation Xrotation Yrotation
											End Site
											{
												OFFSET -2.2000 0.0000 0.0000
											}
										}
									}
								}
								JOINT Beta:RightHandPinky1
								{
									OFFSET	-9.9715	-0.1191	-3.9540
									CHANNELS 3 Zrotation Xrotation Yrotation
									JOINT Beta:RightHandPinky2
									{
										OFFSET	-3.6528	0.0000	0.0000
										CHANNELS 3 Zrotation Xrotation Yrotation
										JOINT Beta:RightHandPinky3
										{
											OFFSET	-2.7820	0.0000	0.0000
											CHANNELS 3 Zrotation Xrotation Yrotation
											End Site
											{
												OFFSET -2.9000 0.0000 0.0000
											}
										}
									}
								}
							}
						}
					}
				}
			}
		}
	}
	JOINT Beta:LeftUpLeg
	{
		OFFSET	9.6338	-3.2733	0.0000
		CHANNELS 3 Xrotation Yrotation Zrotation
		JOINT Beta:LeftLeg
		{
			OFFSET	0.0000	-41.7300	-1.7300
			CHANNELS 3 Xrotation Yrotation Zrotation
			JOINT Beta:LeftFoot
			{
				OFFSET	0.0126	-39.1900	-0.8477
				CHANNELS 3 Xrotation Yrotation Zrotation
				JOINT Beta:LeftToeBase
				{
					OFFSET	-0.1833	-12.1931	8.2823
					CHANNELS 3 Xrotation Yrotation Zrotation
					End Site
					{
						OFFSET 0.0000 0.0000 10.1681
					}
				}
			}
		}
	}
	JOINT Beta:RightUpLeg
	{
		OFFSET	-9.6338	-3.2733	0.0000
		CHANNELS 3 Xrotation Yrotation Zrotation
		JOINT Beta:RightLeg
		{
			OFFSET	0.0000	-41.7300	-1.7300
			CHANNELS 3 Xrotation Yrotation Zrotation
			JOINT Beta:RightFoot
			{
				OFFSET	0.0126	-39.1900	-0.8477
				CHANNELS 3 Xrotation Yrotation Zrotation
				JOINT Beta:RightToeBase
				{
					OFFSET	-0.1833	-12.1931	8.2823
					CHANNELS 3 Xrotation Yrotation Zrotation
					End Site
					{
						OFFSET 0.0032 0.0000 10.1681
					}
				}
			}
		}
	}
}
MOTION
Frames: 8
Frame Time: 0.0333333
-0.0000 86.4831 0.0000 71.2480 18.6625 -6.4250 9.3291 -7.0987 6.5961 3.3885 -3.2793 2.4647 3.3697 -3.2620 2.5133 -1.1349 -6.8474 -2.2958 -0.0000 0.0000 -0.0000 -17.3469 -46.9712 16.5537 -11.4730 2.8422 -11.6484 -58.4258 3.1424 25.0914 0.0000 0.0003 -88.1087 32.3331 0.0228 48.9881 -11.2530 2.6297 -6.4671 14.0357 -1.1934 -6.4608 6.9009 -10.0000 -37.0145 -21.8265 0.0000 -5.5984 -25.5791 0.0000 0.0000 15.0000 -0.0000 -0.0000 -15.1971 0.0763 -7.1959 -4.7947 0.0000 -0.0000 12.0086 0.0000 0.0000 -19.8315 -0.0000 -2.1218 -40.8774 0.0000 -0.0000 11.8968 -0.0000 -0.0000 -22.3209 -1.1211 -1.0677 -49.5077 0.0000 0.0000 1.1916 -0.0000 0.0000 17.3185 1.9796 4.7360 41.4503 8.4657 -6.5912 0.0000 0.0000 62.6300 20.3744 -0.4431 34.0587 8.6231 5.6876 -9.7519 -14.0357 -1.1935 -8.7257 -6.9009 -10.0000 26.1701 44.2135 0.0000 8.1125 34.5700 0.0000 0.0000 17.2877 0.0000 0.0000 53.6864 0.0000 6.6395 57.9319 0.0000 0.0000 13.1732 0.0000 -0.0000 56.4809 0.0000 2.5274 77.6067 0.0000 -0.0000 24.7822 0.0000 0.0000 68.7135 0.0000 1.5481 95.9107 0.0000 0.0000 45.2115 0.0000 -0.0000 -42.3705 21.4088 11.7184 116.4559 3.3864 -0.5509 -1.8607 1.4457 7.5601 -9.6514 0.0000 -0.0000 -42.7506 -6.4193 7.2877 53.1545 9.1614 3.1943 -27.6673 2.7613 -10.3692 -9.3478 0.0000 0.0000 
13.1361 86.3508 0.0276 71.5872 18.5721 -5.7707 9.0612 -5.6225 5.3320 3.3570 -2.5196 2.1422 3.3405 -2.5114 2.1787 -1.0414 -7.5723 -2.2064 -0.0000 0.0000 -0.0000 -16.2600 -49.0815 15.7850 -11.1188 2.7527 -11.4131 -63.6171 0.1935 22.9575 0.0000 0.0000 -51.2113 18.9091 -12.8712 52.1210 -11.2419 2.6501 -6.3774 14.0357 -1.1934 -6.3765 6.9009 -10.0000 -36.9543 -21.9265 -0.0000 -5.6007 -25.6803 0.0000 -0.0000 14.9212 -0.0000 0.0000 -15.2816 0.0763 -7.1976 -4.8810 -0.0000 0.0000 11.9235 0.0000 -0.0000 -19.9575 -0.0000 -2.1221 -41.0037 0.0000 0.0000 11.7707 -0.0000 -0.0000 -22.5009 -1.1159 -1.0685 -49.6878 -0.0000 0.0000 1.0115 -0.0000 -0.0000 17.1031 2.3229 6.3207 35.2638 11.8961 4.4269 0.0000 0.0000 66.7128 22.2854 0.0046 28.0929 8.8041 5.4045 -8.4106 -14.0357 -1.1935 -7.4671 -6.9009 -10.0000 27.0688 42.2997 0.0080 8.0866 32.2363 -0.0000 0.0000 14.9446 -0.0000 -0.0000 51.5454 0.0000 6.6829 55.7530 0.0000 0.0000 10.4281 0.0000 -0.0000 53.9487 0.0000 2.7332 75.0614 0.0000 0.0000 21.8329 -0.0000 0.0000 65.3673 -0.0911 1.5485 92.5633 0.0000 0.0000 41.7474 0.0000 -0.0000 -57.9604 13.2866 11.4346 118.7782 1.9875 -0.4664 -8.0708 0.3346 5.4491 -9.9250 0.0000 -0.0000 -31.1077 -4.3199 5.5278 49.2898 9.4226 1.0183 -35.7929 2.3902 -7.2786 -9.3478 0.0000 0.0000 
26.2881 87.1136 -0.3216 72.6609 18.7829 -3.0719 7.9781 -4.6660 2.1808 3.1098 -1.8534 1.3659 3.0942 -1.8617 1.3881 -0.8350 -8.4060 -1.7421 -0.0000 0.0000 -0.0000 -12.0630 -52.0141 17.9764 -10.5137 2.6223 -11.1536 -65.8059 -3.6265 25.6945 0.0000 0.0000 -28.9471 8.1247 -24.7090 58.0374 -11.3326 2.5531 -6.9109 14.0357 -1.1934 -6.8757 6.9009 -10.0000 -37.3108 -21.3359 0.0000 -5.5700 -25.0817 0.0000 0.0000 15.3879 -0.0000 0.0000 -14.7829 0.0790 -7.1728 -4.3701 -0.0000 -0.0000 12.4271 -0.0000 -0.0000 -19.2118 0.0000 -2.1095 -40.2565 -0.0000 -0.0000 12.5170 0.0000 0.0000 -21.4351 -1.1394 -1.0522 -48.6218 -0.0000 0.0000 2.0775 0.0000 -0.0000 15.0501 2.2546 6.8492 30.3848 13.7960 12.2472 0.0000 -0.0000 72.3660 26.0489 -0.1885 22.3162 9.2208 4.8275 -5.5637 -14.0357 -1.1934 -4.7976 -6.9009 -10.0000 28.9751 38.0077 0.0220 7.9942 27.2237 0.0000 0.0000 9.9391 -0.0000 -0.0000 46.7655 0.0000 6.6987 50.8923 0.0000 -0.0000 4.6654 0.0000 -0.0000 48.3350 0.0000 3.0475 69.4254 -0.0000 0.0000 15.5399 0.0000 -0.0000 58.0328 -0.2871 1.3785 85.2262 0.0000 -0.0000 34.2183 -0.0000 0.0000 -68.7697 8.1607 7.9422 110.0673 2.0068 -0.1923 -12.6548 1.7697 2.8393 -8.7734 -0.0000 0.0000 -14.5304 -4.7099 0.8279 32.8742 9.7131 -1.1508 -36.6850 2.4899 -2.4933 -9.3478 -0.0000 -0.0000 
39.8178 88.1461 -0.9613 74.6543 19.7190 1.3033 6.8568 -3.6684 -1.1078 2.8637 -1.2346 0.4875 2.8510 -1.2568 0.4976 -1.0429 -9.3537 -1.0708 -0.0000 0.0000 -0.0000 -7.9398 -55.3601 21.0504 -9.8668 2.6545 -11.8300 -63.9345 -7.9040 29.6415 0.0000 0.0000 -19.4823 -2.1023 -25.5075 63.2457 -11.3069 2.5475 -6.8548 14.0357 -1.1934 -6.8247 6.9009 -10.0000 -37.2743 -21.3953 0.0000 -5.5845 -25.1427 -0.0000 -0.0000 15.3402 -0.0000 0.0000 -14.8330 0.0771 -7.1852 -4.4223 -0.0000 -0.0000 12.3757 0.0000 -0.0000 -19.2878 0.0000 -2.1177 -40.3328 -0.0000 -0.0000 12.4407 -0.0000 0.0000 -21.5442 -1.1419 -1.0614 -48.7308 0.0000 -0.0000 1.9685 -0.0000 -0.0000 12.6851 1.7716 5.4822 26.5212 13.5190 17.5812 -0.0000 -0.0000 78.3686 25.5532 0.7531 18.9015 9.8334 4.0724 -1.6654 -14.0357 -1.1934 -1.1452 -6.9009 -10.0000 31.5832 31.9404 0.0425 7.8147 20.3111 -0.0000 0.0000 3.0490 0.0000 0.0000 40.0226 -0.0000 6.6328 44.0402 0.0000 -0.0000 -2.8533 0.0000 -0.0000 40.4463 0.0000 3.3614 61.5140 0.0000 0.0000 6.8749 -0.0000 0.0000 47.7972 -0.5512 1.3454 74.9875 -0.0000 -0.0000 23.7639 0.0000 -0.0000 -75.4228 6.9578 3.0055 92.6108 1.4664 0.2438 -14.5519 3.4577 6.3988 -8.7714 0.0000 -0.0000 -2.2303 -9.0676 -4.6956 17.1014 9.1749 -3.4062 -15.1593 3.8367 2.6910 -21.4457 0.0000 0.0000 
53.3576 88.8209 -1.4429 77.0618 20.6864 3.4356 6.3834 -2.2285 -2.2715 2.7456 -0.6970 0.0750 2.7375 -0.7224 0.0800 -1.7572 -10.1811 -0.6381 -0.0000 0.0000 -0.0000 -7.1723 -58.0212 21.8613 -9.5150 2.8565 -13.2268 -60.1035 -11.0576 31.5820 0.0000 -0.0000 -16.2955 -12.4147 -12.3629 66.2202 -10.8221 3.0273 -4.1107 14.0357 -1.1935 -4.2587 6.9009 -10.0000 -35.4420 -24.4302 -0.0000 -5.7551 -28.2188 0.0000 0.0000 12.9413 -0.0000 0.0000 -17.3953 0.0607 -7.3240 -7.0485 0.0000 0.0000 9.7868 0.0000 -0.0000 -23.1208 -0.0000 -2.1903 -44.1731 0.0000 0.0000 8.6047 -0.0000 0.0000 -27.0229 -1.0268 -1.1537 -54.2099 0.0000 0.0000 -3.5106 0.0000 -0.0000 11.2089 1.1443 2.9307 24.0279 11.3344 21.0344 -0.0000 0.0001 83.1501 15.7300 3.6823 18.3282 10.5085 3.3344 2.3504 -14.0357 -1.1935 2.6133 -6.9009 -10.0000 34.2670 25.1809 0.0641 7.5687 13.0535 -0.0000 0.0000 -4.1443 0.0000 -0.0000 32.5568 0.0000 6.4182 36.4601 0.0000 0.0000 -9.7866 -0.0000 0.0000 31.7944 0.0000 3.4262 52.8476 0.0000 0.0000 -2.1590 0.0000 0.0000 36.7385 -0.8197 1.6661 63.9263 0.0000 0.0000 12.6037 -0.0000 0.0000 -76.5766 4.7877 -0.7666 68.3655 1.3562 1.4756 -15.7005 5.8995 2.0389 -7.8054 0.0000 0.0000 5.3724 -13.4899 -8.1772 6.4908 8.6730 -4.6745 11.9831 8.3928 12.8948 -29.4555 0.0012 -0.4046 
67.6499 89.1890 -1.4646 77.6229 21.3429 1.4562 6.5829 -0.9925 -0.9463 2.7283 -0.4625 0.2818 2.7233 -0.4817 0.2880 -2.3387 -10.5122 -0.5880 -0.0000 0.0000 -0.0000 -9.5432 -58.7819 19.8517 -9.6104 3.0931 -14.4484 -57.8952 -11.7753 30.2969 -0.0000 0.0000 -14.8281 -20.9704 7.6443 67.8458 -9.8638 4.0921 1.6502 14.0357 -1.1934 1.1337 6.9009 -10.0000 -31.5914 -30.8111 0.0000 -6.0719 -34.6838 0.0000 0.0000 7.9002 0.0000 0.0000 -22.7825 0.0319 -7.5795 -12.5672 -0.0000 -0.0000 4.3465 -0.0000 0.0000 -31.1760 0.0000 -2.3177 -52.2433 -0.0000 0.0000 0.5436 -0.0000 -0.0000 -38.5353 -0.7675 -1.3195 -65.7239 -0.0000 0.0000 -15.0246 0.0000 -0.0000 10.9672 0.7631 1.0727 24.2614 8.9856 21.6579 0.0000 0.0000 85.4151 -0.7686 8.1240 18.6973 11.0569 2.7995 5.4269 -14.0357 -1.1934 5.4895 -6.9009 -10.0000 36.3209 18.4089 0.0721 7.3186 7.0632 0.0000 0.0000 -9.9189 0.0000 -0.0000 25.2296 -0.0000 5.9402 29.0293 -0.0000 -0.0000 -13.9930 0.0000 0.0000 23.5494 -0.0000 2.7588 44.5978 0.0000 0.0000 -9.3314 -0.0000 -0.0000 26.6586 -1.0393 1.5214 53.8454 -0.0000 0.0000 2.8253 -0.0000 0.0000 -69.9859 2.1968 -0.8671 39.9253 1.8505 3.2950 -13.8908 1.4599 -3.9658 -9.3006 0.0000 0.0000 5.2326 -8.5781 -5.8249 20.0928 9.3514 -8.5707 14.4409 4.8081 12.3194 -6.1115 0.0000 -0.0000 
82.5266 88.8087 -1.2936 78.3282 20.7559 -0.0342 7.0055 -1.2766 1.0448 2.7578 -0.7765 0.6946 2.7518 -0.7870 0.7051 -2.2482 -10.1709 -0.7254 -0.0000 0.0000 -0.0000 -11.9791 -57.4056 17.5477 -10.1236 3.2936 -15.0750 -58.2704 -10.1664 27.0747 -0.0000 -0.0000 -16.2813 -25.4191 23.5715 66.5966 -8.9536 5.1999 7.4059 14.0357 -1.1934 6.5250 6.9009 -10.0000 -27.7415 -37.1933 0.0000 -6.3561 -41.1482 -0.0000 -0.0000 2.8601 0.0000 0.0000 -28.1708 0.0071 -7.8066 -18.0849 -0.0000 -0.0000 -1.0928 0.0000 0.0000 -39.2301 -0.0000 -2.4254 -60.3122 -0.0000 -0.0000 -7.5160 0.0000 0.0000 -50.0449 -0.4952 -1.4630 -77.2358 -0.0000 0.0000 -26.5365 -0.0000 -0.0000 11.3934 0.6963 0.5689 27.8046 8.7703 18.3337 -0.0000 0.0000 85.0186 -13.8336 11.5082 18.6820 11.3540 2.5380 7.0151 -14.0357 -1.1934 6.9728 -6.9009 -10.0000 37.3801 11.4150 0.0558 7.1134 3.0314 0.0000 -0.0000 -13.4455 -0.0000 -0.0000 17.9319 -0.0000 5.0760 21.6350 0.0000 -0.0000 -15.2738 -0.0000 0.0000 15.7627 0.0000 0.8881 36.8077 -0.0000 0.0000 -13.5361 -0.0000 -0.0000 17.9284 -1.1999 -0.9641 45.1153 0.0000 -0.0000 -4.9218 -0.0000 0.0000 -60.2031 1.8999 -0.3391 21.0746 -7.7895 3.5214 -12.6585 2.1574 -9.5696 -13.5799 -0.0000 -0.0000 0.8434 -2.5205 -3.2114 43.5582 6.1262 -9.0701 10.1893 0.4608 11.1337 -7.0040 -0.0000 0.0000 
97.6916 88.2943 -1.4178 80.2186 19.8304 0.3991 7.3868 -3.4534 2.1183 2.8468 -1.6045 0.9289 2.8377 -1.6086 0.9447 -1.8001 -9.3419 -0.9431 -0.0000 0.0000 -0.0000 -13.1521 -54.9096 16.7982 -11.1008 3.4987 -15.2712 -58.8651 -7.5457 22.8849 -0.0000 0.0000 -23.7941 -26.1511 30.9577 58.8746 -8.5507 5.7521 10.1380 14.0357 -1.1935 9.0865 6.9009 -10.0000 -25.9124 -40.2271 0.0000 -6.4713 -44.2198 -0.0000 -0.0000 0.4655 -0.0000 -0.0000 -30.7321 -0.0024 -7.8972 -20.7064 -0.0000 -0.0000 -3.6771 -0.0000 0.0000 -43.0570 0.0000 -2.4645 -64.1459 -0.0000 -0.0000 -11.3452 -0.0000 -0.0000 -55.5129 -0.3583 -1.5173 -82.7053 -0.0000 0.0000 -32.0060 -0.0000 0.0000 11.7855 0.7141 0.5175 33.4214 10.8721 11.8783 -0.0000 0.0001 81.9757 -16.2962 11.5007 19.3637 11.4085 2.4970 7.2883 -14.0357 -1.1935 7.2274 -6.9009 -10.0000 37.5619 4.3917 0.0260 6.9626 0.7781 -0.0000 0.0000 -14.9674 0.0000 0.0000 10.8373 0.0000 3.9194 14.4469 0.0000 -0.0000 -15.1559 -0.0000 0.0000 8.5612 0.0000 -1.9562 29.5954 0.0000 -0.0000 -15.1483 -0.0000 0.0000 10.5611 -1.3131 -6.4010 37.7490 0.0000 0.0000 -10.7455 -0.0000 -0.0000 -58.8622 3.8576 -3.1678 33.2724 -3.3092 2.5201 -7.5550 0.8243 1.3522 -14.3673 0.0000 -0.0000 -6.8665 -0.2379 -3.3295 66.4027 -1.3836 -5.9069 11.2604 0.3434 8.8457 -7.3353 -0.0000 0.0000 
